PathFileType	4	(x/y/z)	S02_M20_T14
DataRate	CameraRate	NumFrames	NumMarkers	Units	OrigDataRate	OrigDataStartFrame	OrigNumFrames
240	240	6	51	mm	240	1	460
Frame#	Time	Sternum			R.Acromium			L.Acromium			Top.Head			R.ASIS			L.ASIS			R.PSIS			L.PSIS			R.Great.Tro			L.Great.Tro			R.Iliac.Crest			L.Iliac.Crest			V.Sacral			R.Thigh.Upper.Post			R.Thigh.Lower.Ant			R.Thigh.Lower.Post			R.Thigh.Upper.Ant			R.Knee.Lat			R.Knee.Med			R.Shank.Upper.Post			R.Shank.Lower.Ant			R.Shank.Lower.Post			R.Shank.Upper.Ant			R.Ankle.Lat			R.Ankle.Med			R.Heel.Upper			R.Heel.Med			R.Heel.Lat			R.Toe.Lat			R.Toe.Med			R.Toe.Tip			L.Thigh.Upper.Post			L.Thigh.Lower.Ant			L.Thigh.Lower.Post			L.Thigh.Upper.Ant			L.Knee.Lat			L.Knee.Med			L.Shank.Upper.Post			L.Shank.Lower.Ant			L.Shank.Lower.Post			L.Shank.Upper.Ant			L.Ankle.Lat			L.Ankle.Med			L.Heel.Upper			L.Heel.Med			L.Heel.Lat			L.Toe.Lat			L.Toe.Med			L.Toe.Tip			Cervical.Spine			Back			
		X1	Y1	Z1	X2	Y2	Z2	X3	Y3	Z3	X4	Y4	Z4	X5	Y5	Z5	X6	Y6	Z6	X7	Y7	Z7	X8	Y8	Z8	X9	Y9	Z9	X10	Y10	Z10	X11	Y11	Z11	X12	Y12	Z12	X13	Y13	Z13	X14	Y14	Z14	X15	Y15	Z15	X16	Y16	Z16	X17	Y17	Z17	X18	Y18	Z18	X19	Y19	Z19	X20	Y20	Z20	X21	Y21	Z21	X22	Y22	Z22	X23	Y23	Z23	X24	Y24	Z24	X25	Y25	Z25	X26	Y26	Z26	X27	Y27	Z27	X28	Y28	Z28	X29	Y29	Z29	X30	Y30	Z30	X31	Y31	Z31	X32	Y32	Z32	X33	Y33	Z33	X34	Y34	Z34	X35	Y35	Z35	X36	Y36	Z36	X37	Y37	Z37	X38	Y38	Z38	X39	Y39	Z39	X40	Y40	Z40	X41	Y41	Z41	X42	Y42	Z42	X43	Y43	Z43	X44	Y44	Z44	X45	Y45	Z45	X46	Y46	Z46	X47	Y47	Z47	X48	Y48	Z48	X49	Y49	Z49	X50	Y50	Z50	X51	Y51	Z51	

1	0	NaN	NaN	NaN	-1666.3	1297.5	466.21	-1650.4	1298.9	170.7	-1606.2	1580.5	317.66	NaN	NaN	NaN	NaN	NaN	NaN	-1799.6	922.73	330.18	-1781.3	919.24	256.99	-1711.5	782.06	519.03	-1628.9	783.42	128.85	-1722.6	935.14	477.35	-1640.5	916.16	142.35	-1819.5	875.48	281.46	-1763.9	592.15	490.72	NaN	NaN	NaN	-1802	513.26	465.63	-1689.5	577.58	479.25	-1820.4	435.73	445.28	-1813.4	424.84	302.99	NaN	NaN	NaN	-1942.4	181.31	390.83	NaN	NaN	NaN	-1916.9	240.12	412.88	-2039.9	126.77	383.1	-2021.3	136.42	302.47	-2100	126.04	326.19	-2092.9	90.468	298.98	-2105.5	94.96	360.86	-1953.2	45.813	409.95	NaN	NaN	NaN	-1869.8	59.575	359.89	-1564.6	565.43	154.02	-1460.9	531.04	171.31	-1526	485.91	178.98	-1508.2	610.21	146.37	-1443.6	452.21	182.01	-1455.3	443.8	320.51	-1444.3	263.32	179.86	-1337.8	220.19	189.91	-1411.9	197.24	196.36	-1380.7	282.3	177.61	-1328.2	105.02	201.6	NaN	NaN	NaN	-1370.9	49.605	239.2	-1345.7	31.926	274.36	-1345.7	23.728	213.24	-1197	91.848	183.03	-1188.3	117.51	288.6	-1143.6	160.47	242.84	-1731.8	1359.2	318.42	-1812.4	1108.4	314.85
2	0.0041667	NaN	NaN	NaN	-1660.9	1297.4	465.45	-1644.8	1298.3	169.87	-1601.1	1580.3	316.47	NaN	NaN	NaN	NaN	NaN	NaN	-1793.7	922.45	330.06	-1775.6	919.04	256.83	-1705.9	781.4	518.71	-1622.7	783.26	128.52	-1716.6	934.64	477.21	-1634.7	915.8	142.05	-1813.6	875.28	281.27	-1759.1	591.78	490.6	NaN	NaN	NaN	-1797	512.9	465.46	-1684.3	576.97	479.06	-1817	435.57	445.65	-1808.7	424.38	302.99	NaN	NaN	NaN	-1940.8	182.03	391.71	NaN	NaN	NaN	-1913.6	241.13	412.99	-2038.3	128.54	383.64	-2019.4	138.12	302.95	-2098.2	128.88	326.76	-2091.4	93.41	299.36	-2104.1	97.706	361.27	-1952.8	45.947	410.21	NaN	NaN	NaN	-1869.7	59.43	359.85	-1559.1	565	154.04	-1455.5	530.44	171.47	-1520.7	485.49	179.27	-1502.6	609.64	146.31	-1438.3	451.62	182.24	-1449.6	443.68	320.68	-1440.5	262.84	180.4	-1334.7	218.83	190.76	-1408.7	196.51	196.93	-1376.8	281.35	178.29	-1325.7	104.29	202.22	NaN	NaN	NaN	-1368.9	50.207	239.65	-1344.9	31.905	274.68	-1345	24.361	213.46	-1195	88.907	183.58	-1185.8	113.82	289.19	-1140.3	155.97	243.5	-1726.4	1358.8	317.44	-1806.6	1107.8	314.32
3	0.0083333	NaN	NaN	NaN	-1655.2	1297.2	464.66	-1638.9	1297.8	169	-1595.9	1580.1	315.22	NaN	NaN	NaN	NaN	NaN	NaN	-1787.5	922.18	329.93	-1769.6	918.86	256.66	-1700.1	780.71	518.38	-1616.1	783.12	128.17	-1710.2	934.14	477.07	-1628.7	915.46	141.72	-1807.4	875.09	281.07	-1754	591.39	490.47	NaN	NaN	NaN	-1791.7	512.53	465.3	-1678.9	576.35	478.87	-1813.2	435.41	446.01	-1803.8	423.91	303.02	NaN	NaN	NaN	-1939.2	182.82	392.62	NaN	NaN	NaN	-1910.2	242.14	413.18	-2036.5	130.4	384.23	-2017.5	139.91	303.47	-2096.2	131.87	327.36	-2089.9	96.528	299.77	-2102.7	100.62	361.71	-1952.4	46.094	410.48	NaN	NaN	NaN	-1869.7	59.259	359.81	-1553.3	564.59	154.06	-1449.8	529.85	171.62	-1515.1	485.09	179.57	-1496.8	609.08	146.24	-1432.9	451.07	182.46	-1443.8	443.58	320.84	-1436.5	262.4	180.95	-1331.4	217.46	191.62	-1405.4	195.82	197.51	-1372.8	280.41	178.98	-1323.1	103.56	202.85	-1313.3	104.06	288.64	-1366.9	50.845	240.1	-1344	31.918	274.99	-1344.2	25.019	213.67	-1192.9	85.877	184.16	-1183.2	110.02	289.82	-1136.9	151.31	244.2	-1720.8	1358.4	316.43	-1800.4	1107.2	313.77
4	0.0125	NaN	NaN	NaN	-1649.3	1297	463.86	-1632.7	1297.2	168.1	-1590.4	1579.9	313.92	NaN	NaN	NaN	NaN	NaN	NaN	-1781	921.92	329.81	-1763.4	918.7	256.5	-1693.9	780	518.03	-1609.3	783.02	127.8	-1703.7	933.64	476.92	-1622.5	915.15	141.36	-1801	874.91	280.88	-1748.6	590.98	490.33	NaN	NaN	NaN	-1786.1	512.14	465.15	-1673.2	575.71	478.68	-1809.1	435.23	446.38	-1798.6	423.41	303.06	NaN	NaN	NaN	-1937.3	183.68	393.54	-2000.9	223.24	400.77	-1906.7	243.16	413.45	-2034.6	132.35	384.86	-2015.4	141.79	304.03	-2094	135.01	328.01	-2088.2	99.814	300.21	-2101.1	103.69	362.18	-1951.9	46.257	410.76	NaN	NaN	NaN	-1869.7	59.061	359.78	-1547.4	564.23	154.07	-1444	529.29	171.77	-1509.4	484.73	179.85	-1490.9	608.55	146.17	-1427.2	450.56	182.68	-1437.8	443.51	320.99	-1432.4	262.02	181.5	-1328	216.11	192.48	-1401.9	195.18	198.09	-1368.6	279.5	179.67	-1320.4	102.82	203.47	-1310.8	103.07	289.12	-1364.8	51.513	240.54	-1343.2	31.97	275.29	-1343.5	25.7	213.88	-1190.8	82.789	184.76	-1180.7	106.13	290.46	-1133.4	146.54	244.95	-1715	1358	315.38	-1794.1	1106.6	313.21
5	0.016667	NaN	NaN	NaN	-1643.2	1296.9	463.03	-1626.5	1296.7	167.18	-1584.8	1579.7	312.59	NaN	NaN	NaN	NaN	NaN	NaN	-1774.4	921.67	329.71	-1757	918.56	256.35	-1687.6	779.28	517.68	-1602.4	782.96	127.42	-1696.9	933.16	476.77	-1616.1	914.89	140.98	-1794.4	874.75	280.7	-1743	590.56	490.18	NaN	NaN	NaN	-1780.3	511.73	465	-1667.3	575.07	478.49	-1804.7	435.04	446.74	-1793.2	422.9	303.12	NaN	NaN	NaN	-1935.4	184.61	394.48	-1998.5	225	401.3	-1903.3	244.17	413.81	-2032.5	134.37	385.53	-2013.2	143.74	304.63	-2091.7	138.29	328.71	-2086.4	103.26	300.68	-2099.4	106.92	362.69	-1951.4	46.439	411.04	-1919.5	39.023	304.37	-1869.7	58.832	359.75	-1541.3	563.93	154.07	-1438.1	528.76	171.9	-1503.5	484.41	180.13	-1484.8	608.06	146.09	-1421.5	450.11	182.89	-1431.8	443.48	321.11	-1428.1	261.71	182.06	-1324.4	214.8	193.33	-1398.3	194.62	198.65	-1364.2	278.64	180.36	-1317.7	102.11	204.08	-1308.3	102.06	289.6	-1362.7	52.21	240.97	-1342.4	32.068	275.57	-1342.7	26.399	214.08	-1188.7	79.67	185.38	-1178.1	102.21	291.13	-1130	141.7	245.74	-1709	1357.6	314.31	-1787.5	1106.1	312.63
6	0.020833	NaN	NaN	NaN	-1637	1296.8	462.18	-1620	1296.2	166.23	-1579	1579.6	311.23	-1572	878.73	454.82	NaN	NaN	NaN	-1767.6	921.43	329.61	-1750.5	918.46	256.2	-1681	778.56	517.32	-1595.3	782.97	127.02	-1689.9	932.71	476.62	-1609.5	914.67	140.56	-1787.7	874.62	280.53	-1737.1	590.12	490.03	NaN	NaN	NaN	-1774.3	511.31	464.86	-1661.2	574.44	478.29	-1800	434.83	447.09	-1787.7	422.38	303.21	NaN	NaN	NaN	-1933.2	185.62	395.42	-1995.8	226.85	401.87	-1899.8	245.18	414.25	-2030.4	136.46	386.25	-2010.8	145.77	305.27	-2089.2	141.7	329.45	-2084.4	106.87	301.19	-2097.6	110.3	363.23	-1950.8	46.645	411.34	-1919.5	39.167	304.56	-1869.7	58.567	359.74	-1535.1	563.69	154.05	-1432	528.3	172.02	-1497.6	484.16	180.38	-1478.5	607.63	146	-1415.6	449.73	183.09	-1425.8	443.5	321.22	-1423.7	261.49	182.61	-1320.8	213.53	194.15	-1394.6	194.14	199.19	-1359.7	277.84	181.02	-1315	101.41	204.66	-1305.8	101.06	290.08	-1360.6	52.93	241.38	-1341.5	32.215	275.83	-1341.8	27.108	214.27	-1186.6	76.549	186	-1175.6	98.273	291.8	-1126.5	136.83	246.56	-1702.9	1357.3	313.21	-1780.8	1105.5	312.05
